<?xml version="1.0" encoding="UTF-8"?>
<svg xmlns="http://www.w3.org/2000/svg" viewBox="0 0 512 200" width="512" height="200">
  <g transform="translate(20, 36) scale(1.0)">
    <g fill="#FFFC00">
        <rect x="20" y="20" width="88" height="88" rx="20"/>
        <path fill="#000000" d="M64 32c-12 0-20 8-20 18 0 4 1 8 3 10-3 1-7 3-7 6 0 3 4 4 7 4 1 5 4 14 17 14s16-9 17-14c3 0 7-1 7-4 0-3-4-5-7-6 2-2 3-6 3-10 0-10-8-18-20-18z"/>
      </g>
  </g>
  <text x="170" y="122" font-family="-apple-system, BlinkMacSystemFont, 'Segoe UI', Roboto, Helvetica, Arial, sans-serif" font-weight="700" font-size="40" fill="#FFFFFF">Snapchat</text>
</svg>